# xmcd
#
# Track frame offsets:
#	150
#	17295
#	36157
#	51856
#	65458
#	77518
#	91142
#	105573
#	120491
#	137325
#	151874
#	162961
#	178459
#	194823
#	211969
#	226566
#	240550
#	255231
#	274698
#
# Disc length: 3897 seconds
#
# Revision: 0
# Processed by: cddbd v1.5.2PL0 Copyright (c) Steve Scherf et al.
# Submitted via: audiograbber 1.83.01
#
DISCID=ea0f3713
DTITLE=Various Artist - CDX 646
DYEAR=2017
DGENRE=Country
TTITLE0=Devin Dawson - All On Me 
TTITLE1=Charlie Worsham - Cut Your Groove
TTITLE2=Jerrod Niemann - God Made A Woman
TTITLE3=Eric Chesser  - Good Times and Summer Days
TTITLE4=Canaan Smith - Like You That Way
TTITLE5=High Valley - She's With Me
TTITLE6=Jeremiah Richey - Chevy Van
TTITLE7=Richard Lynch - Cut and Paste
TTITLE8=Lucas Hoge - Dirty South
TTITLE9=Eileen Carey - Good Bad Girl
TTITLE10=Pete Schlegel - I Don't Drink Anymore
TTITLE11=Caleb Daugherty - I'm Outta' Here
TTITLE12=Eva Snyder - Queen
TTITLE13=Shotgun Wedding - South Of Somewhere
TTITLE14=Jeremy Michael - Talk
TTITLE15=Cody Johnson - Wild As You
TTITLE16=Stephanie Quayle - Winnebago
TTITLE17=TheSliderscom - Electric Boogie Spanglish
TTITLE18=TheSliderscom - Electric Boogie Spanglish (Acelar)
EXTD=
EXTT0=
EXTT1=
EXTT2=
EXTT3=
EXTT4=
EXTT5=
EXTT6=
EXTT7=
EXTT8=
EXTT9=
EXTT10=
EXTT11=
EXTT12=
EXTT13=
EXTT14=
EXTT15=
EXTT16=
EXTT17=
EXTT18=
PLAYORDER=
